<?xml version="1.0" encoding="UTF-8"?>
<svg id="Black_and_White" data-name="Black and White" xmlns="http://www.w3.org/2000/svg" viewBox="0 0 1087 849">
  <defs>
    <style>
      .cls-1 {
        fill: #c8c8c8;
      }
    </style>
  </defs>
  <g id="Layer_4" data-name="Layer 4">
    <rect width="1087" height="849"/>
  </g>
  <g>
    <g>
      <path class="cls-1" d="M805.44,423.53l-13.25,41.98c-3.09,9.79-5.77,21.11-8.09,30.69-.2.82-1.27,1.96-1.86,2.09s-2.31-1.31-2.55-2.18l-16.7-59.4c-1.38-4.92-2.43-8.63-4.12-13.26-1.95,17.79-1.07,34.11-.54,51.43.25,8.17,1.24,16.07,4.87,23.28.67,1.33,1.19,3.6.54,4.53s-3.34,1.07-4.65.81c-6.9-1.33-12.56-.7-20.12-.2-.16-2.28,1.23-4.71,2.04-7.14,4.1-12.25,3.78-25.27,3.85-38.26l.2-39.01c.05-10.42-1.79-19.73-6.59-29.9,13.07,1.6,24.3,2.43,36.64,1.98l11.19,51.23,10.66-49.02c.4-1.83,2.74-3.42,4.47-3.16,11.27,1.74,21.6,1.11,33.55-.16.42,4.06-3.12,7.54-3.94,11.27-2.36,10.75-2.19,21.7-2.66,32.8-.72,17.11-.58,33.5,1.71,50.39,1.54,11.39,7.8,18.07,5.87,20.24-1.67,1.89-16.9-1.42-26.71-1.05-2.85.11-6.14,1.77-8.76.45,2.2-7.3,4.4-13.51,4.68-20.71.79-19.99.85-39.14.26-59.72Z"/>
      <path class="cls-1" d="M310.85,440.06c16.02,7.76,18.62,24.12,15.67,39.78-2.37,12.57-12.69,20.88-25.31,22.75-7.73,1.15-15.2-.02-23.19-1.03-15.04-1.9-29.34,6.25-27.13-.65,3.4-10.62,6.74-21.69,7.35-33.13.87-16.4.75-32.31.07-48.6-.46-11.09-3.4-20.92-7.48-31.29,1.63-.87,4.66-1.31,6.67-.87,22.26,4.86,23.41-.55,43.09,1.9,6.23.78,12.71,3.35,16.62,8.22,9.05,11.28,8.35,34.62-6.37,42.92ZM297.41,426.15c1.44-7.48,1.76-13.82-2.21-19.99-2.27-3.53-7.78-6.48-11.8-3.57-1.01,10.69-.77,22.1.57,32.79,6.41,2.81,12.2-2.75,13.44-9.23ZM299.62,462.12c-1.82-7.74-8.71-12.18-16.32-9.77l.55,31.25c.03,1.79,1.97,5.67,3.56,6.46,9.89,4.91,15.26-14.96,12.2-27.94Z"/>
      <path class="cls-1" d="M562.84,483.21c-7.12,16.73-29.81,18.07-45.43,16.06-9.52-1.23-18.57.04-28.39,1.4-1.52-4.15,1.13-7.45,2.27-11.25,2.82-9.43,3.37-19.49,3.4-29.54.04-14.33.91-52.87-4.24-64.01l-3.55-7.68c13.56.46,25.59.84,38.75-.08,17.71-1.24,34.51,3.35,36.05,23.83.84,11.18-3.46,21.69-13.26,27.46,4.66,2.87,9.35,5.37,11.89,9.52,6.31,10.29,7.2,23.26,2.51,34.3ZM534.08,429.73c3.74-8.23,3.56-17.24-.57-24.88-2.02-3.75-8.29-6.35-12.21-4.31-2.3,6.36-.6,26.13-.08,33.66,4.21,3.63,10.67.36,12.87-4.47ZM536.57,480.06c3.16-6.88,3.44-15.12.91-21.67-2.79-7.22-9.93-10.59-16.85-7.55l.2,25.9c.02,2.94,1.22,7.91,3,9.87,4.88,1.87,10.47-1.6,12.74-6.54Z"/>
      <path class="cls-1" d="M414.39,487.83c9.42,1.25,15.45-16.69,10.7-30.36-2.56-7.38-10.77-8.4-10.28-13.97.1-1.1,2.71-2.09,3.93-2.15l30.06-1.5c1.79-.09,4.68.73,5.86,1.73-7.12,15.52-8.63,41.37-4.09,57.95-5.97.41-10.42-3.11-14.81-5.79-4.35,2.42-9.1,5.91-13.9,7.22-18.41,5.02-36.67-5.11-43.34-23.08-9.75-26.28-8.75-72.16,18.12-87.8,10.58-6.16,23.23-5.23,34.19-.23,13.05,5.95,12.95-5,20.1-1.87l-5.38,32.67c-.18,1.07-1.81,2.79-2.66,3.11-5.39,2.11-3.19-13.47-21.99-22.06-20.01-9.15-24.1,56.4-13.14,81.29,1.03,2.33,4.59,4.57,6.63,4.84Z"/>
      <path class="cls-1" d="M623.48,500.11c-16.08,6.76-32.81.26-41.35-13.86-6.32-10.44-9.11-21.9-9.88-34.19-1.19-18.96,1.05-37.43,12.8-52.78,12.82-16.75,36.84-17.24,50.97-1.57,16.51,18.31,17.32,50.56,11.17,73.69-3.35,12.59-11.25,23.47-23.71,28.71ZM613.25,489.89c11.45-4.46,10.48-43.49,10.29-54s-.7-20.59-4.8-29.91c-1.6-3.63-5.89-7.89-10.13-5.87-10.57,5.02-10.28,41.04-10.07,51.77.19,10.21.64,19.94,3.33,29.68,1.28,4.62,6.02,10.42,11.39,8.33Z"/>
      <path class="cls-1" d="M696.14,503.55c-12.55-.17-22.4-7.52-28.5-17.9-9.1-15.47-10.6-33.71-9.16-51.78,1.29-16.18,6.98-31.91,20.13-42,12.11-9.28,30.43-6.96,40.91,3.95,19.22,20,18.3,61.16,8.9,84.65-5.4,13.51-16.85,23.28-32.28,23.07ZM698.7,490.1c3.37-2.18,5.67-6.9,6.37-10.82,4-22.49,4.95-45.08.71-67.47-.89-4.69-3.72-10.56-8.36-11.61-11.93-2.7-12.73,28.24-13.02,34.71-.64,14.47-1.15,37.82,4.37,50.57,1.58,3.65,5.6,7.42,9.93,4.62Z"/>
      <path class="cls-1" d="M367.49,499.28l.79,2c.2.5-2.1.99-2.88.86-10.35-1.75-21.75-2.11-33.16.03,4.13-9.99,5.56-19.17,5.66-29.32.22-21.12.84-41.57-.53-62.52-.76-11.69-3.23-13.2-4.97-22.16,15.94,2.07,22.03-.02,35.85,1.11-2.63,6.56-4.79,10.97-5.1,17.07-1.31,25.54-1.1,50.64-.12,76.26.23,5.93,2.3,11.2,4.47,16.69Z"/>
    </g>
    <path class="cls-1" d="M625.07,721.62l3.83,10.98c1.82,5.21,4.14,10.13,6.91,14.97l-10.87,4.36-.43-5.91c-3.46-9.56-9.56-31.91-17.03-38.72l16.71-6.32,13.5,19.39-1.81-22.69,14.46-5.53c.69,3.45,1.28,6.6,2.37,9.55l8.68,23.33c1.53,4.11,3.54,7.12,6.77,11.45l-14.87,5.81c.17-4.84-.04-8.38-1.56-12.51l-7-19.11.75,33.99c-6.83-4.04-14.99-22.3-20.41-23.04Z"/>
    <path class="cls-1" d="M765.82,654.44l-19.27-16.23c-4.51-3.8-9.15-6.38-14.21-9.36l6.89-9.83c8.51-.19,17.59,5.45,29.21,5.67-3.9-3.64-15.43-12.88-22.11-13.5l6.91-10.72,36.51,29.06-6.34,10.33-29.31-6.87c4.67,4.36,8.36,6.91,13.12,10.42,2.94,2.17,5.98,2.38,11.11,2.85l-10.14,13.67c-.75-.87-1.37-4.65-2.37-5.49Z"/>
    <path class="cls-1" d="M604,747.4c-2.43,7.46-8.8,11.82-14.86,12.32-7.24.6-13.37-2.91-16.77-9.48-4.76-9.18-7.69-31.57,5.35-37.96,6.37-3.12,14.66-3.36,19.97,2.7,7.34,8.39,9.91,21.4,6.32,32.42ZM585.28,717.55c-8.68,1.06-3.88,36.06,4.66,34.28,7.51-1.57,3.54-35.27-4.66-34.28Z"/>
    <path class="cls-1" d="M729.52,682.89c2.31,3.56,4.64,6.41,7.71,10.04l-11.23,7.3c-.63-1.64-1.26-5.25-2.04-6.68l-15.12-27.85c-1.97-3.62-4.84-5.95-8.83-9.12l14.93-10.35c3.49,2.98,7,5.85,10.83,8.6l16.89,12.19c4,2.88,7.51,4.62,12.58,7.05l-11.65,12.28c-1.82-3.5-2.7-7.67-6.1-8.32-1.99-.38-5.62,2.57-7.98,4.85ZM731.17,672.04c-4.81-4.72-8.08-8.2-14.82-9.55l9.01,14.38,5.81-4.83Z"/>
    <path class="cls-1" d="M687.15,727.07c-1.54-3.78-3.08-7.67-4.97-10.72l-11.07-17.91c-2.9-4.69-6.21-8.52-10.54-12.44l19.47-11.36c6.92-4.04,14.3-.37,17.76,5.94,2.49,4.54,3.91,9.1,1.79,14.61-1.31,3.41-5.1,6.41-10.01,9.24,2.25,5.34,6.31,10.4,11.13,14.26l-13.57,8.39ZM686,699.05c2.46-2.21,4.47-4.66,4.28-6.48-.22-2.08-1.49-5.04-2.63-6.56-2.54-3.36-7.37-4.01-10.34-.88,2.43,4.93,5.38,9.62,8.69,13.92Z"/>
    <path class="cls-1" d="M776.35,589.6c-4.83-.81-8.93-.5-14.18-.3l6.26-12.6,21.1,4.1c-3.82-5.11-10.51-15.53-16.86-14.47,1.9-4.42,4.24-8.83,7.28-13.22,6.83,11.55,14.43,21.94,25.47,30.06,2.24,1.65,6.23,1.96,9.77,2.8l-6.4,15.66c-4.31-4.78-8.27-7.98-13.94-8.93l-18.51-3.1Z"/>
    <path class="cls-1" d="M536.2,726.58c-2.69,8.12-3.16,26.89,5.39,28.02,5.31.7,8.04-3.25,11.79-6.79.78,2.63,1.08,7.66-.32,10.55-7.82,6.91-21.37,5.33-26.85-3.88-5.55-9.34-5.36-21.16-1.02-30.85,5.35-11.94,17.38-12.96,29-7.87.36,4.56.34,8.67-.39,13.31-2.92-3.07-4.76-5.92-7.68-7.55-3.99-2.22-8.63,1.16-9.92,5.05Z"/>
    <path class="cls-1" d="M367.35,372.13c-15.54,1.17-28.98.14-43.8.47-1.84-.33-3.77-1.72-4.06-3.21-.27-1.34,1.68-4.4,3.16-4.26,15.41,1.38,29.45,2.54,44.7,7Z"/>
    <path class="cls-1" d="M720.32,372.85c-.83,0-2.62-.28-2.65-.54l-.21-1.52,31.59-3.7c1.16-.14,3.35.83,4.1,1.62s-.56,4.25-1.66,4.25l-31.17-.11Z"/>
    <path class="cls-1" d="M647.73,142.51c-.64.81-4.3.54-4.34-.39s.02-2.98.33-3.88l1.52-4.53c.39-1.17,4.28-1.19,5.04-.29.95,2.25-.67,6.72-2.55,9.09Z"/>
    <g>
      <path class="cls-1" d="M510.48,272.05l-30.27-103.72-18.33-55.7c3.93-2.3,7.63-3.63,12.01-5.04l6.63,14.1c.92-6.26-.92-9.64-1.56-15.68l13.52-3.53,12.57,68.01,15.61,99.34c3.99,25.42,8.78,49.61,9.89,76l-20.07-73.8Z"/>
      <path class="cls-1" d="M615.52,153.04c-2.85,9.73-5.92,18.19-9.33,27.31-18.24,48.78-33.6,97.8-45.19,148.6-1.56,6.83-2.83,13.03-5.78,18.85,4.03-38,10.75-73.21,16.55-109.76l8.35-52.64,14.74-83.46c6.96,1.41,12.18,2.9,19.15,5.23l-10.71,43.08c-2.19,8.8-4.75,16.95-4.78,26.53,4.22-5.85,9.05-25.98,12.42-26.94,1.25-.36,4.98,1.81,4.58,3.19Z"/>
      <path class="cls-1" d="M527.87,372.12l-30.93-45.64-69.06-108.67-40.14-63.83c-4.5-8.27-10.53-14.94-13.03-25.21,23.87,23.99,45.56,49.44,64.31,77.43,35.55,53.08,56.74,90.91,83.24,148.84,2.55,5.58,4.47,10.52,5.6,17.08Z"/>
      <path class="cls-1" d="M732.09,325.47l-95.79,32.92c-12.88,4.43-24.82,9.91-38.69,11.07l53.64-26.12,28.64-14.4c23.37-11.75,46.27-23.23,70.54-33.12,11.79-4.8,23.22-8.13,35.44-10.83,8.2-1.81,15.62-4.67,24.45-4.03l-48.32,20.3c-3.36,1.41-6.55,2.87-9.68,5.33l58.27-14.69c7.45-1.88,14.35-3.7,22.45-3.62-13.51,6.08-26.42,11.7-40.46,16.5l-60.48,20.69Z"/>
      <path class="cls-1" d="M617.83,276.75l-29.03,45.47c-10.25,16.06-19.01,32.55-32.13,47.86,27.89-69.93,66.67-139.04,111.79-197.34,10.66-13.77,20.26-28.16,34.74-39.31-21.1,39.41-43.87,75.37-66.47,112.37l-18.91,30.95Z"/>
      <path class="cls-1" d="M551.07,239.63l-5.31,110.14c-.3,6.2.09,11.88-2.17,17.24-5.45-63.59-8.54-126.25-6.58-189.55l1.29-41.72c.25-8.25,1.62-43.92,5.05-48.87,4.95-7.14,6.62,63.44,6.73,66.72l1.08,32.94c.58,17.76.81,34.6-.09,53.1Z"/>
      <path class="cls-1" d="M457.52,354.85c2.75,1.35,6.42,4.16,9.35,4.92l1.08.28,2.79,2.5c4.17,1.95,8.15,2.95,11.36,7.06l-38.54-12.75-69.28-25.85c-38.13-14.22-75.36-28.44-111.53-46.99-2.28-1.17-3.78-2.37-5.44-4.62,19.44,3.46,37.93,12.05,58.23,16.11-5.71-6.78-28.62-12.16-33-18.84,22.34,5.58,37.14,10.78,57.57,20.77l117.4,57.41Z"/>
      <path class="cls-1" d="M497.48,363.95l-35.47-24.37c-15.5-10.65-29.68-21.73-44.09-33.99l-74.53-63.39c-12.25-10.42-23.31-21.04-35.77-30.23-1.36-1.93-2.54-2.99-2.88-6.6,43.23,24.98,106.39,72.77,142.52,105.78l41.27,37.71,22.94,20.67c-5.02-.76-10.22-2.99-13.99-5.57Z"/>
      <path class="cls-1" d="M622.78,323.77l40.05-34.66,46.48-38.53,16.36-13.75,28.25-21.61c3.66-2.8,7.48-6.3,12.84-5.34-39.56,42.13-78.86,80.43-123.82,115.22-23.06,15.71-44.04,32.34-70.23,45.24l50.08-46.59Z"/>
      <path class="cls-1" d="M420.55,366.74c-21.7-2.02-41.85-7.71-62.94-11.94l-96.55-19.4,5.2-18.45,57.73,16.76c32.27,10.3,63.63,19.98,96.56,33.03Z"/>
      <path class="cls-1" d="M696.85,362.81c-13.54,2.42-25.64,5.16-40.05,6.37l52.49-17.75c21.1-7.14,41.69-13.87,63.45-18.43l33.35-6.98,3.34,12.34c.22.81.26,2.88-.28,3.46-.53.58-2.26,1.32-3.32,1.51l-108.98,19.5Z"/>
      <path class="cls-1" d="M403.92,311.97l-103.89-62.38,1.68-5.62,7.07-11.56c4.19,1.94,7.99,4,11.69,6.83,29.77,22.8,58.4,45.91,85.89,71.74l-2.44.98Z"/>
      <path class="cls-1" d="M444.27,274.6c-21.47-18.17-39.29-39.45-58.79-59.42-10.19-10.43-19.61-20.11-28.01-31.63,6.06-4.43,11.33-7.21,17.86-9.09l12.6,17.44c18.71,27.01,38.95,51.82,56.34,82.71Z"/>
      <path class="cls-1" d="M719.54,184c-1.05,2.54-2.07,4.98-3.86,7.11-22.33,26.53-44.49,52.51-70.36,77.09,18.6-32.56,39.35-61.53,60.13-91.98,5.7,1.74,9.58,4.36,14.1,7.78Z"/>
      <path class="cls-1" d="M686.74,307.78c17.74-19.56,37.03-34.4,55.74-50.97,7.21-6.39,13.96-11.75,21.78-17.6,3.28,3.43,5.21,5.94,6.73,9.99-27.84,20.33-54.16,41.46-84.25,58.58Z"/>
      <path class="cls-1" d="M483.79,252.79c-10.32-16.39-18.08-32.9-26.23-49.73l-15.22-31.41,12.8-4.95c10.27,28.59,20.99,55.71,28.65,86.1Z"/>
      <path class="cls-1" d="M626.87,308.19c6.07-5.47,11.01-11.83,17.09-18.14l65.92-68.32,3.99-1.86c.98-.46,3.3,1.57,3.37,2.61.06.87-.61,2.71-1.29,3.39l-38.51,38.26-48.4,45.74c-.81.76-2.69-1.38-2.17-1.69Z"/>
      <path class="cls-1" d="M619.57,223.55l-7.17,13.72c-.19.36-2.34,1.23-2.32.79s-.2-1.88.15-2.88l23.66-66.86c4.39-.21,7.32,1.56,10.6,4.72l-24.92,50.5Z"/>
      <path class="cls-1" d="M415.16,267.21c2.38,2.38,4.4,4.81,5.51,8.67-7.45-5.29-58.07-46.51-58.4-51.1-.09-1.26,1.59-3.09,2.68-3.73s4.32.21,5.36,1.26l44.84,44.9Z"/>
      <path class="cls-1" d="M522.42,180.44c.02.38-.38,2-.53,2.23l-.48.75c-.21.33-1.39-1.73-1.51-2.49l-6.4-39.94c-.3-1.86,2.54-3.8,3.9-3.82,1.98-.03,3.34,2.33,3.44,4.69l1.58,38.59Z"/>
      <path class="cls-1" d="M575.15,141.71c-2.39,12.11-2.69,22.88-7.56,34.79-1.85-11.96,1.04-23.22,1.42-35.39.05-1.66,1.58-3.41,3.04-3.35,1.39.06,3.46,2.16,3.1,3.95Z"/>
      <path class="cls-1" d="M451.81,148.74c.34.79-3.29,1.21-3.65.49l-9.59-18.87c-.43-.84.59-3.45.99-4.06.51-.76,2.79.41,3.21,1.38l9.05,21.05Z"/>
      <path class="cls-1" d="M418.04,141.3c-1.31,1.74-5.34-.38-6.33-2.03-1.14-1.9-2.11-5.91.6-6.79,4.25-1.39,8.36,5.33,5.73,8.82Z"/>
      <path class="cls-1" d="M569.31,209.39c-3.77.77-4.62-2.05-4.85-4.08-.23-2.05.84-4.72,3.56-4.79,1.5-.04,3.3,1.88,3.55,3.13.33,1.72-.62,5.41-2.25,5.74Z"/>
    </g>
    <g>
      <path class="cls-1" d="M661.31,559.34c-6.2-16.94-23.97-20.8-40.65-17.42-3.59-6.59-9.63-10.87-17.25-12.73-15.92-3.88-32.03-4.87-48.5-5.82-25.69-1.49-58.56.48-84.19,4.39-8.83,1.35-20.56,4.1-24.99,11.08-5.28,8.31-5.48,19.83.95,28.07,3.7,4.73,9.99,6.14,15.55,7.34,7.15,1.55,14.13,3.66,21.37,3.29l11.99-.61c.63-.03,2.76.03,2.77-.46l.03-2.24c.03-2.16-14.81.29-16.72-3.35.95-.12,2.84-.03,3.83,0-.37-2.17,1.6-3.56,4.16-4.44l-4.03-2.55c-.23-.15-.59-.43-.81-.62-.2-.18-.98.24-1.35.55-2.24,1.9-4.01-.48-5.86-1.06l-11.8-3.69c-3.1-.97-5.95-1.95-9-3.29l2.88-.72c3.53.91,7.42,2.03,11.05,2.65,6.56,1.14,13.63.22,19.98-1.2-9.59-1.25-18.34-2.61-27.12-4.44-.38-.38-1.51-1.21-2.2-1.57l-6.62-3.48-.79-3.45c-.97-4.21,21.37-9.39,26.3-10.11,32.62-4.77,65.32-5.09,98.16-1.5,7.7.84,14.41,2.15,21.6,4.63,4.7,1.62,10.45,6.94,10.2,12.44-.93,20.6-8.55,56.73-24.46,70.88-6.11,5.44-13.96,7.06-21.4,11.35,14.92-.02,26.46-7.04,36.92-17.06,14.45,1.14,28.5-1.43,41.34-8.16,17.05-8.94,25.25-28.72,18.66-46.71ZM643.23,587.05c-8.76,9.49-21.52,13.22-33.6,11.5,5.07-14.02,8.3-26.77,10.99-41.1,9.59-4.11,21.61-.95,27.05,8.39,2.71,7.21,1.1,15.21-4.43,21.21Z"/>
      <path class="cls-1" d="M591.71,573.9c3.3-7.7,11.88-28.93-.81-32.25-10.22-2.67-20.49-2.88-31.26-3.44-24.44-1.27-48.23-2.76-73.26,1.75,28.4,7.85,57.47,4.25,86.7,7.34,20.26,2.14,5.62,39.48,6.04,51.51,6.88-7.86,8.95-16.42,12.59-24.92Z"/>
      <path class="cls-1" d="M507.72,639.63l-24.96-2.88c-.38,2.15.57,6.9,2.64,7.45,10.96,2.94,20.59,3.25,31.21,4.03,21.28,1.56,41.98.03,62.85-4.32,1.7-2.3,2.88-5.82,2.79-7.98-17.45,4.25-59.02,5.49-74.52,3.7Z"/>
      <path class="cls-1" d="M504.81,622.61c-12.39-4.01-24.72-4.42-35.66-11.71,19.15,2.07,39.54,5.01,56.51,2.96,2.33.4,5.79-.07,8.29-.78-7.57-1.9-14.4-1.09-21.32-1.3-16.25-1.57-32.46-3.99-48.36-9.54-4.93-1.72-8.88-4.75-13.77-7.34,1.85,16.9,21.4,27.64,37.04,27.67l17.27.04Z"/>
      <path class="cls-1" d="M478.4,582.5c-11.42-2.25-22.11-4.76-33.15-9.97-.1,6.41,3.93,11.77,10.18,13.79,5.57,1.8,24.06,3.44,22.98-3.82Z"/>
    </g>
    <g>
      <path class="cls-1" d="M323.84,639.25c-8.1,4.08-16.85,2.6-22.35-3.64-5.26-5.97-5.9-15.13-1.03-22.2,7.86-11.41,24.43-21.73,36.78-12.77,4.52,3.28,7.98,10.85,6.79,16.48-2.22,10.45-10.84,17.43-20.19,22.13ZM334.33,614.58c.87-1.28.37-5.13-.82-6.04-5.74-4.38-31.28,13.79-26.4,21.04,5.18,7.7,22.26-7.7,27.22-15Z"/>
      <path class="cls-1" d="M426.74,713.57l-5.3,11.71c3.99,3.2,7.5,3.85,14.24,2.62l-4.46,11.05-25.95-11.7c2.83-4.03,5.29-7.66,7.06-11.53l10.18-22.28c1.26-2.75.91-6.32.81-9.96l27.17,11.12-4.52,10.38c-2.43-4.41-6.87-7.21-12.28-7.39l-4.16,9.21,9.21,3.62-3.4,8.75-8.6-5.6Z"/>
      <path class="cls-1" d="M469.79,730.36l-3.46,11.08c3.75,3.72,9.04,2.28,14.52-.05l-3.71,12.33-26.67-7.87c2.68-4.17,4.59-7.91,5.88-12.29l6.88-23.39c.64-2.17.4-6.52.46-9.05l26.43,7.45-3.59,11.31c-2.61-5.48-6.91-7.07-12.12-6.75l-3.02,9.77,8.64,2.15-2.68,8.94-7.57-3.63Z"/>
      <path class="cls-1" d="M311.89,571.32c-4.33-9.75-20.96-.83-28.5,8.25-2.46,2.96-3.35,8.34-.36,11.11l9.99,3.08c-1.24,2.84-4.89,4.87-7.95,5.29-3.81.53-6.81-2.46-9.05-5.61-5.38-7.57-6-16.89.19-24.27,6.48-7.72,16.54-12.95,26.68-12.8,7.88.12,13.76,5.1,16.56,11.82l3.68,8.86-13.39,6.78c-2.73-1.9,4.87-6.38,2.15-12.53Z"/>
      <path class="cls-1" d="M393.74,701.15c-2.69-3.21-4.99-5.95-8.38-7.67-4.72,4.09-7.45,8.64-8.88,15.08l-14.05-9.5c3.09-2.56,5.49-4.45,7.37-7.12l16.54-23.46c1.4-1.98,2.05-5.06,2.92-7.81l24.14,16.71-6.27,9.39c-1.96-4.61-5.09-8.4-10.26-11.12l-7.35,10.35c2.02,3.97,6.14,4.97,10.58,4.51l-6.37,10.63Z"/>
      <path class="cls-1" d="M355.88,669.82c-1.52-4.05-2.28-6.3-5.64-8.71l-9.57,10.61c-.91,1.01-1.16,4.55-1.54,6.06l-12.95-12.38c2.34-.76,5.67-2.19,7.58-4.23l16.57-17.7c3.21-3.43,5.37-6.72,8.42-11.31l9.88,9.65,10.25,10.22-7.59,7.67c-1.84-5.25-4.34-8.73-9.2-11.83-2.13,2.31-4.27,4.79-5.7,7.01,1.93,2.61,3.92,4.42,6.92,7.35l-7.43,7.61Z"/>
    </g>
  </g>
</svg>